<?xml version="1.0" encoding="us-ascii" standalone="no"?><svg xmlns="http://www.w3.org/2000/svg" xmlns:xlink="http://www.w3.org/1999/xlink" contentStyleType="text/css" height="559px" preserveAspectRatio="none" style="width:1097px;height:559px;background:#FFFFFF;" version="1.1" viewBox="0 0 1097 559" width="1097px" zoomAndPan="magnify"><defs/><g><!--class BookCopy--><g id="elem_BookCopy"><rect codeLine="1" fill="#F1F1F1" height="97.4648" id="BookCopy" rx="2.5" ry="2.5" style="stroke:#181818;stroke-width:0.5;" width="174" x="229.5" y="230.93"/><ellipse cx="277.75" cy="246.93" fill="#ADD1B2" rx="11" ry="11" style="stroke:#181818;stroke-width:1.0;"/><path d="M281.3643,253.43 L273.6445,253.43 L273.6445,241.0369 L281.3643,241.0369 L281.3643,243.1951 L276.0933,243.1951 L276.0933,245.868 L280.8662,245.868 L280.8662,248.0262 L276.0933,248.0262 L276.0933,251.2718 L281.3643,251.2718 Z " fill="#000000"/><text fill="#000000" font-family="sans-serif" font-size="14" lengthAdjust="spacing" textLength="69" x="298.25" y="252.221">BookCopy</text><line style="stroke:#181818;stroke-width:0.5;" x1="230.5" x2="402.5" y1="262.93" y2="262.93"/><ellipse cx="240.5" cy="276.6741" fill="none" rx="3" ry="3" style="stroke:#038048;stroke-width:1.0;"/><text fill="#000000" font-family="sans-serif" font-size="14" lengthAdjust="spacing" textLength="148" x="249.5" y="280.4652">copy_id : integer &#171;PK&#187;</text><text fill="#000000" font-family="sans-serif" font-size="14" lengthAdjust="spacing" textLength="147" x="249.5" y="296.9534">shelf_location : string</text><text fill="#000000" font-family="sans-serif" font-size="14" lengthAdjust="spacing" textLength="117" x="249.5" y="313.4417">ISBN : string &#171;FK&#187;</text><line style="stroke:#181818;stroke-width:0.5;" x1="230.5" x2="402.5" y1="320.3948" y2="320.3948"/></g><!--class Book--><g id="elem_Book"><rect codeLine="7" fill="#F1F1F1" height="130.4414" id="Book" rx="2.5" ry="2.5" style="stroke:#181818;stroke-width:0.5;" width="200" x="442.5" y="7"/><ellipse cx="521.25" cy="23" fill="#ADD1B2" rx="11" ry="11" style="stroke:#181818;stroke-width:1.0;"/><path d="M524.8643,29.5 L517.1445,29.5 L517.1445,17.1069 L524.8643,17.1069 L524.8643,19.2651 L519.5933,19.2651 L519.5933,21.938 L524.3662,21.938 L524.3662,24.0962 L519.5933,24.0962 L519.5933,27.3418 L524.8643,27.3418 Z " fill="#000000"/><text fill="#000000" font-family="sans-serif" font-size="14" lengthAdjust="spacing" textLength="34" x="541.75" y="28.291">Book</text><line style="stroke:#181818;stroke-width:0.5;" x1="443.5" x2="641.5" y1="39" y2="39"/><ellipse cx="453.5" cy="52.7441" fill="none" rx="3" ry="3" style="stroke:#038048;stroke-width:1.0;"/><text fill="#000000" font-family="sans-serif" font-size="14" lengthAdjust="spacing" textLength="117" x="462.5" y="56.5352">ISBN : string &#171;PK&#187;</text><text fill="#000000" font-family="sans-serif" font-size="14" lengthAdjust="spacing" textLength="174" x="462.5" y="73.0234">publication_year : integer</text><text fill="#000000" font-family="sans-serif" font-size="14" lengthAdjust="spacing" textLength="78" x="462.5" y="89.5117">title : string</text><text fill="#000000" font-family="sans-serif" font-size="14" lengthAdjust="spacing" textLength="98" x="462.5" y="106">author : string</text><text fill="#000000" font-family="sans-serif" font-size="14" lengthAdjust="spacing" textLength="141" x="462.5" y="122.4883">page_count : integer</text><line style="stroke:#181818;stroke-width:0.5;" x1="443.5" x2="641.5" y1="129.4414" y2="129.4414"/></g><!--class Publisher--><g id="elem_Publisher"><rect codeLine="15" fill="#F1F1F1" height="97.4648" id="Publisher" rx="2.5" ry="2.5" style="stroke:#181818;stroke-width:0.5;" width="207" x="439" y="230.93"/><ellipse cx="506.25" cy="246.93" fill="#ADD1B2" rx="11" ry="11" style="stroke:#181818;stroke-width:1.0;"/><path d="M509.8643,253.43 L502.1445,253.43 L502.1445,241.0369 L509.8643,241.0369 L509.8643,243.1951 L504.5933,243.1951 L504.5933,245.868 L509.3662,245.868 L509.3662,248.0262 L504.5933,248.0262 L504.5933,251.2718 L509.8643,251.2718 Z " fill="#000000"/><text fill="#000000" font-family="sans-serif" font-size="14" lengthAdjust="spacing" textLength="64" x="526.75" y="252.221">Publisher</text><line style="stroke:#181818;stroke-width:0.5;" x1="440" x2="645" y1="262.93" y2="262.93"/><ellipse cx="450" cy="276.6741" fill="none" rx="3" ry="3" style="stroke:#038048;stroke-width:1.0;"/><text fill="#000000" font-family="sans-serif" font-size="14" lengthAdjust="spacing" textLength="181" x="459" y="280.4652">publisher_id : integer &#171;PK&#187;</text><text fill="#000000" font-family="sans-serif" font-size="14" lengthAdjust="spacing" textLength="90" x="459" y="296.9534">name : string</text><text fill="#000000" font-family="sans-serif" font-size="14" lengthAdjust="spacing" textLength="106" x="459" y="313.4417">address : string</text><line style="stroke:#181818;stroke-width:0.5;" x1="440" x2="645" y1="320.3948" y2="320.3948"/></g><!--class Category--><g id="elem_Category"><rect codeLine="21" fill="#F1F1F1" height="97.4648" id="Category" rx="2.5" ry="2.5" style="stroke:#181818;stroke-width:0.5;" width="253" x="681" y="230.93"/><ellipse cx="772.25" cy="246.93" fill="#ADD1B2" rx="11" ry="11" style="stroke:#181818;stroke-width:1.0;"/><path d="M775.8643,253.43 L768.1445,253.43 L768.1445,241.0369 L775.8643,241.0369 L775.8643,243.1951 L770.5933,243.1951 L770.5933,245.868 L775.3662,245.868 L775.3662,248.0262 L770.5933,248.0262 L770.5933,251.2718 L775.8643,251.2718 Z " fill="#000000"/><text fill="#000000" font-family="sans-serif" font-size="14" lengthAdjust="spacing" textLength="62" x="792.75" y="252.221">Category</text><line style="stroke:#181818;stroke-width:0.5;" x1="682" x2="933" y1="262.93" y2="262.93"/><ellipse cx="692" cy="276.6741" fill="none" rx="3" ry="3" style="stroke:#038048;stroke-width:1.0;"/><text fill="#000000" font-family="sans-serif" font-size="14" lengthAdjust="spacing" textLength="175" x="701" y="280.4652">category_id : integer &#171;PK&#187;</text><text fill="#000000" font-family="sans-serif" font-size="14" lengthAdjust="spacing" textLength="90" x="701" y="296.9534">name : string</text><text fill="#000000" font-family="sans-serif" font-size="14" lengthAdjust="spacing" textLength="227" x="701" y="313.4417">parent_category_id : integer &#171;FK&#187;</text><line style="stroke:#181818;stroke-width:0.5;" x1="682" x2="933" y1="320.3948" y2="320.3948"/></g><!--class Reader--><g id="elem_Reader"><rect codeLine="27" fill="#F1F1F1" height="130.4414" id="Reader" rx="2.5" ry="2.5" style="stroke:#181818;stroke-width:0.5;" width="187" x="7" y="214.44"/><ellipse cx="72.25" cy="230.44" fill="#ADD1B2" rx="11" ry="11" style="stroke:#181818;stroke-width:1.0;"/><path d="M75.8643,236.94 L68.1445,236.94 L68.1445,224.5469 L75.8643,224.5469 L75.8643,226.7051 L70.5933,226.7051 L70.5933,229.378 L75.3662,229.378 L75.3662,231.5362 L70.5933,231.5362 L70.5933,234.7818 L75.8643,234.7818 Z " fill="#000000"/><text fill="#000000" font-family="sans-serif" font-size="14" lengthAdjust="spacing" textLength="48" x="92.75" y="235.731">Reader</text><line style="stroke:#181818;stroke-width:0.5;" x1="8" x2="193" y1="246.44" y2="246.44"/><ellipse cx="18" cy="260.1841" fill="none" rx="3" ry="3" style="stroke:#038048;stroke-width:1.0;"/><text fill="#000000" font-family="sans-serif" font-size="14" lengthAdjust="spacing" textLength="161" x="27" y="263.9752">reader_id : integer &#171;PK&#187;</text><text fill="#000000" font-family="sans-serif" font-size="14" lengthAdjust="spacing" textLength="121" x="27" y="280.4634">last_name : string</text><text fill="#000000" font-family="sans-serif" font-size="14" lengthAdjust="spacing" textLength="124" x="27" y="296.9517">first_name : string</text><text fill="#000000" font-family="sans-serif" font-size="14" lengthAdjust="spacing" textLength="106" x="27" y="313.44">address : string</text><text fill="#000000" font-family="sans-serif" font-size="14" lengthAdjust="spacing" textLength="112" x="27" y="329.9283">birth_date : date</text><line style="stroke:#181818;stroke-width:0.5;" x1="8" x2="193" y1="336.8814" y2="336.8814"/></g><!--class Record--><g id="elem_Record"><rect codeLine="35" fill="#F1F1F1" height="130.4414" id="Record" rx="2.5" ry="2.5" style="stroke:#181818;stroke-width:0.5;" width="187" x="53" y="421.88"/><ellipse cx="118.25" cy="437.88" fill="#ADD1B2" rx="11" ry="11" style="stroke:#181818;stroke-width:1.0;"/><path d="M121.8643,444.38 L114.1445,444.38 L114.1445,431.9869 L121.8643,431.9869 L121.8643,434.1451 L116.5933,434.1451 L116.5933,436.818 L121.3662,436.818 L121.3662,438.9762 L116.5933,438.9762 L116.5933,442.2218 L121.8643,442.2218 Z " fill="#000000"/><text fill="#000000" font-family="sans-serif" font-size="14" lengthAdjust="spacing" textLength="48" x="138.75" y="443.171">Record</text><line style="stroke:#181818;stroke-width:0.5;" x1="54" x2="239" y1="453.88" y2="453.88"/><ellipse cx="64" cy="467.6241" fill="none" rx="3" ry="3" style="stroke:#038048;stroke-width:1.0;"/><text fill="#000000" font-family="sans-serif" font-size="14" lengthAdjust="spacing" textLength="146" x="73" y="471.4152">loan_id : integer &#171;PK&#187;</text><text fill="#000000" font-family="sans-serif" font-size="14" lengthAdjust="spacing" textLength="161" x="73" y="487.9034">reader_id : integer &#171;FK&#187;</text><text fill="#000000" font-family="sans-serif" font-size="14" lengthAdjust="spacing" textLength="148" x="73" y="504.3917">copy_id : integer &#171;FK&#187;</text><text fill="#000000" font-family="sans-serif" font-size="14" lengthAdjust="spacing" textLength="141" x="73" y="520.88">checkout_date : date</text><text fill="#000000" font-family="sans-serif" font-size="14" lengthAdjust="spacing" textLength="105" x="73" y="537.3683">due_date : date</text><line style="stroke:#181818;stroke-width:0.5;" x1="54" x2="239" y1="544.3214" y2="544.3214"/></g><!--link Book to BookCopy--><g id="link_Book_BookCopy"><path codeLine="43" d="M465.6898,143.0407 C432.5498,173.1607 413.0085,190.9215 382.5185,218.6415 " fill="none" id="Book-BookCopy" style="stroke:#181818;stroke-width:1.0;"/><line style="stroke:#181818;stroke-width:1.0;" x1="465.9596" x2="471.3403" y1="137.3903" y2="143.3104"/><line style="stroke:#181818;stroke-width:1.0;" x1="463.7395" x2="469.1202" y1="139.408" y2="145.3282"/><line style="stroke:#181818;stroke-width:1.0;" x1="465.6898" x2="471.61" y1="143.0407" y2="137.66"/><line style="stroke:#181818;stroke-width:1.0;" x1="375.1193" x2="373.2362" y1="225.3684" y2="235.1895"/><line style="stroke:#181818;stroke-width:1.0;" x1="375.1193" x2="365.1638" y1="225.3684" y2="226.3105"/><line style="stroke:#181818;stroke-width:1.0;" x1="375.1193" x2="369.2" y1="225.3684" y2="230.75"/><ellipse cx="379.5589" cy="221.3322" fill="none" rx="4" ry="4" style="stroke:#181818;stroke-width:1.0;"/><text fill="#000000" font-family="sans-serif" font-size="13" lengthAdjust="spacing" textLength="22" x="437.28" y="181.0084">has</text></g><!--link Book to Publisher--><g id="link_Book_Publisher"><path codeLine="44" d="M542.5,155.66 C542.5,185.78 542.5,185.03 542.5,212.75 " fill="none" id="Book-Publisher" style="stroke:#181818;stroke-width:1.0;"/><line style="stroke:#181818;stroke-width:1.0;" x1="542.5" x2="536.5" y1="145.66" y2="137.66"/><line style="stroke:#181818;stroke-width:1.0;" x1="542.5" x2="548.5" y1="145.66" y2="137.66"/><line style="stroke:#181818;stroke-width:1.0;" x1="542.5" x2="542.5" y1="145.66" y2="137.66"/><ellipse cx="542.5" cy="151.66" fill="none" rx="4" ry="4" style="stroke:#181818;stroke-width:1.0;"/><line style="stroke:#181818;stroke-width:1.0;" x1="542.5" x2="548.5" y1="222.75" y2="230.75"/><line style="stroke:#181818;stroke-width:1.0;" x1="542.5" x2="536.5" y1="222.75" y2="230.75"/><line style="stroke:#181818;stroke-width:1.0;" x1="542.5" x2="542.5" y1="222.75" y2="230.75"/><ellipse cx="542.5" cy="216.75" fill="none" rx="4" ry="4" style="stroke:#181818;stroke-width:1.0;"/><text fill="#000000" font-family="sans-serif" font-size="13" lengthAdjust="spacing" textLength="81" x="543.5" y="181.0084">published by</text></g><!--link Book to Category--><g id="link_Book_Category"><path codeLine="45" d="M639.8469,148.6871 C678.7069,178.8071 695.7252,192.0003 731.4752,219.7203 " fill="none" id="Book-Category" style="stroke:#181818;stroke-width:1.0;"/><line style="stroke:#181818;stroke-width:1.0;" x1="631.943" x2="621.9443" y1="142.5609" y2="142.4023"/><line style="stroke:#181818;stroke-width:1.0;" x1="631.943" x2="629.2957" y1="142.5609" y2="132.9177"/><line style="stroke:#181818;stroke-width:1.0;" x1="631.943" x2="625.62" y1="142.5609" y2="137.66"/><ellipse cx="636.6853" cy="146.2366" fill="none" rx="4" ry="4" style="stroke:#181818;stroke-width:1.0;"/><line style="stroke:#181818;stroke-width:1.0;" x1="739.3779" x2="749.3766" y1="225.8479" y2="226.0084"/><line style="stroke:#181818;stroke-width:1.0;" x1="739.3779" x2="742.0234" y1="225.8479" y2="235.4916"/><line style="stroke:#181818;stroke-width:1.0;" x1="739.3779" x2="745.7" y1="225.8479" y2="230.75"/><ellipse cx="734.6362" cy="222.1713" fill="none" rx="4" ry="4" style="stroke:#181818;stroke-width:1.0;"/><text fill="#000000" font-family="sans-serif" font-size="13" lengthAdjust="spacing" textLength="67" x="683.95" y="181.0084">belongs to</text></g><!--link Category to Category--><g id="link_Category_Category"><path codeLine="46" d="M942.3868,262.7132 C962.8768,265.3032 969,270.29 969,279.66 C969,289.03 972.7968,292.7441 952.3068,295.3441 " fill="none" id="Category-Category" style="stroke:#181818;stroke-width:1.0;"/><line style="stroke:#181818;stroke-width:1.0;" x1="937.9168" x2="938.92" y1="266.18" y2="258.2432"/><line style="stroke:#181818;stroke-width:1.0;" x1="940.8931" x2="941.8964" y1="266.5563" y2="258.6194"/><line style="stroke:#181818;stroke-width:1.0;" x1="942.3868" x2="934.45" y1="262.7132" y2="261.71"/><line style="stroke:#181818;stroke-width:1.0;" x1="942.3864" x2="935.2053" y1="296.6029" y2="303.5623"/><line style="stroke:#181818;stroke-width:1.0;" x1="942.3864" x2="933.6947" y1="296.6029" y2="291.6577"/><line style="stroke:#181818;stroke-width:1.0;" x1="942.3864" x2="934.45" y1="296.6029" y2="297.61"/><ellipse cx="948.3386" cy="295.8477" fill="none" rx="4" ry="4" style="stroke:#181818;stroke-width:1.0;"/><text fill="#000000" font-family="sans-serif" font-size="13" lengthAdjust="spacing" textLength="109" x="975" y="284.7284">is subcategory of</text></g><!--link Reader to Record--><g id="link_Reader_Record"><path codeLine="47" d="M116.6766,352.907 C122.1266,377.267 122.6616,379.6039 128.1116,403.9739 " fill="none" id="Reader-Record" style="stroke:#181818;stroke-width:1.0;"/><line style="stroke:#181818;stroke-width:1.0;" x1="111.8998" x2="119.7068" y1="349.8768" y2="348.1302"/><line style="stroke:#181818;stroke-width:1.0;" x1="112.5548" x2="120.3618" y1="352.8044" y2="351.0578"/><line style="stroke:#181818;stroke-width:1.0;" x1="116.6766" x2="114.93" y1="352.907" y2="345.1"/><line style="stroke:#181818;stroke-width:1.0;" x1="130.294" x2="137.8954" y1="413.7328" y2="420.2305"/><line style="stroke:#181818;stroke-width:1.0;" x1="130.294" x2="126.1846" y1="413.7328" y2="422.8495"/><line style="stroke:#181818;stroke-width:1.0;" x1="130.294" x2="132.04" y1="413.7328" y2="421.54"/><ellipse cx="128.9846" cy="407.8775" fill="none" rx="4" ry="4" style="stroke:#181818;stroke-width:1.0;"/><text fill="#000000" font-family="sans-serif" font-size="13" lengthAdjust="spacing" textLength="51" x="125.88" y="388.4484">borrows</text></g><!--link BookCopy to Record--><g id="link_BookCopy_Record"><path codeLine="48" d="M271.5414,334.9847 C248.6814,362.6247 236.2441,377.6412 211.4241,407.6412 " fill="none" id="BookCopy-Record" style="stroke:#181818;stroke-width:1.0;"/><line style="stroke:#181818;stroke-width:1.0;" x1="271.0083" x2="277.1731" y1="329.3531" y2="334.4517"/><line style="stroke:#181818;stroke-width:1.0;" x1="269.0963" x2="275.2611" y1="331.6648" y2="336.7635"/><line style="stroke:#181818;stroke-width:1.0;" x1="271.5414" x2="276.64" y1="334.9847" y2="328.82"/><line style="stroke:#181818;stroke-width:1.0;" x1="205.0496" x2="204.5729" y1="415.3461" y2="425.3347"/><line style="stroke:#181818;stroke-width:1.0;" x1="205.0496" x2="195.3271" y1="415.3461" y2="417.6853"/><line style="stroke:#181818;stroke-width:1.0;" x1="205.0496" x2="199.95" y1="415.3461" y2="421.51"/><ellipse cx="208.8743" cy="410.7231" fill="none" rx="4" ry="4" style="stroke:#181818;stroke-width:1.0;"/><text fill="#000000" font-family="sans-serif" font-size="13" lengthAdjust="spacing" textLength="90" x="237.6" y="388.4484">is borrowed in</text></g><!--SRC=[bL91QiCm4Bpx5KBNaW-4a4C2WL8eeNs0a2t55d6rPYLJJ9A_TsL7Ykt4X_fYD3ExCokjjjxuZl4Tm7aFJSVP9MFqlHLq44QnDJFMwr8ZssoE7zjjpxfAroTHGo6z0KiQvz7OikVUltUV2Q6YGoYwPPaUEIMNkJWvD6rUcw6zwBJ4HuwUfbQrdlhArbU0KwoHfHO5jDQFwaTPZi65Xi4Kg8d8uknM_ioTbKBjt0CSEUmbDG0StUiT-4V_HYAr4qkLyml-qbAD9iB-k6XNI-V5i-V9u4lyQTO0vWPz9HJb8ppyfd4AG9NYr23jOfZNMG-HVhMJ3xBInHbQFyaH2DNgURQmW-nwNQtWmkBchnclfEC3TuEUI_j1PDmCnV9kgeflJA9Srs1BnppmBCBHA9r9PnnpRHvVbC69PyEpHV5mQq6Q0oByteE5eCyIwZQeA9on_0y0]--></g></svg>