<?xml version="1.0" encoding="us-ascii" standalone="no"?><svg xmlns="http://www.w3.org/2000/svg" xmlns:xlink="http://www.w3.org/1999/xlink" contentStyleType="text/css" height="1590px" preserveAspectRatio="none" style="width:430px;height:1590px;background:#FFFFFF;" version="1.1" viewBox="0 0 430 1590" width="430px" zoomAndPan="magnify"><defs/><g><!--class Apartment--><g id="elem_Apartment"><rect codeLine="1" fill="#F1F1F1" height="97.4648" id="Apartment" rx="2.5" ry="2.5" style="stroke:#181818;stroke-width:0.5;" width="219" x="66.5" y="851.77"/><ellipse cx="135.25" cy="867.77" fill="#ADD1B2" rx="11" ry="11" style="stroke:#181818;stroke-width:1.0;"/><path d="M138.8643,874.27 L131.1445,874.27 L131.1445,861.8769 L138.8643,861.8769 L138.8643,864.0351 L133.5933,864.0351 L133.5933,866.708 L138.3662,866.708 L138.3662,868.8662 L133.5933,868.8662 L133.5933,872.1118 L138.8643,872.1118 Z " fill="#000000"/><text fill="#000000" font-family="sans-serif" font-size="14" lengthAdjust="spacing" textLength="73" x="155.75" y="873.061">Apartment</text><line style="stroke:#181818;stroke-width:0.5;" x1="67.5" x2="284.5" y1="883.77" y2="883.77"/><ellipse cx="77.5" cy="897.5141" fill="none" rx="3" ry="3" style="stroke:#038048;stroke-width:1.0;"/><text fill="#000000" font-family="sans-serif" font-size="14" lengthAdjust="spacing" textLength="187" x="86.5" y="901.3052">apartment_id : integer &#171;PK&#187;</text><text fill="#000000" font-family="sans-serif" font-size="14" lengthAdjust="spacing" textLength="193" x="86.5" y="917.7934">apartment_number : integer</text><text fill="#000000" font-family="sans-serif" font-size="14" lengthAdjust="spacing" textLength="158" x="86.5" y="934.2817">house_id : integer &#171;FK&#187;</text><line style="stroke:#181818;stroke-width:0.5;" x1="67.5" x2="284.5" y1="941.2348" y2="941.2348"/></g><!--class House--><g id="elem_House"><rect codeLine="7" fill="#F1F1F1" height="113.9531" id="House" rx="2.5" ry="2.5" style="stroke:#181818;stroke-width:0.5;" width="190" x="81" y="1010.23"/><ellipse cx="150.25" cy="1026.23" fill="#ADD1B2" rx="11" ry="11" style="stroke:#181818;stroke-width:1.0;"/><path d="M153.8643,1032.73 L146.1445,1032.73 L146.1445,1020.3369 L153.8643,1020.3369 L153.8643,1022.4951 L148.5933,1022.4951 L148.5933,1025.168 L153.3662,1025.168 L153.3662,1027.3262 L148.5933,1027.3262 L148.5933,1030.5718 L153.8643,1030.5718 Z " fill="#000000"/><text fill="#000000" font-family="sans-serif" font-size="14" lengthAdjust="spacing" textLength="43" x="170.75" y="1031.521">House</text><line style="stroke:#181818;stroke-width:0.5;" x1="82" x2="270" y1="1042.23" y2="1042.23"/><ellipse cx="92" cy="1055.9741" fill="none" rx="3" ry="3" style="stroke:#038048;stroke-width:1.0;"/><text fill="#000000" font-family="sans-serif" font-size="14" lengthAdjust="spacing" textLength="158" x="101" y="1059.7652">house_id : integer &#171;PK&#187;</text><text fill="#000000" font-family="sans-serif" font-size="14" lengthAdjust="spacing" textLength="164" x="101" y="1076.2534">house_number : integer</text><text fill="#000000" font-family="sans-serif" font-size="14" lengthAdjust="spacing" textLength="155" x="101" y="1092.7417">street_id : integer &#171;FK&#187;</text><text fill="#000000" font-family="sans-serif" font-size="14" lengthAdjust="spacing" textLength="139" x="101" y="1109.23">city_id : integer &#171;FK&#187;</text><line style="stroke:#181818;stroke-width:0.5;" x1="82" x2="270" y1="1116.1831" y2="1116.1831"/></g><!--class Street--><g id="elem_Street"><rect codeLine="14" fill="#F1F1F1" height="97.4648" id="Street" rx="2.5" ry="2.5" style="stroke:#181818;stroke-width:0.5;" width="181" x="85.5" y="1185.18"/><ellipse cx="151.75" cy="1201.18" fill="#ADD1B2" rx="11" ry="11" style="stroke:#181818;stroke-width:1.0;"/><path d="M155.3643,1207.68 L147.6445,1207.68 L147.6445,1195.2869 L155.3643,1195.2869 L155.3643,1197.4451 L150.0933,1197.4451 L150.0933,1200.118 L154.8662,1200.118 L154.8662,1202.2762 L150.0933,1202.2762 L150.0933,1205.5218 L155.3643,1205.5218 Z " fill="#000000"/><text fill="#000000" font-family="sans-serif" font-size="14" lengthAdjust="spacing" textLength="40" x="172.25" y="1206.471">Street</text><line style="stroke:#181818;stroke-width:0.5;" x1="86.5" x2="265.5" y1="1217.18" y2="1217.18"/><ellipse cx="96.5" cy="1230.9241" fill="none" rx="3" ry="3" style="stroke:#038048;stroke-width:1.0;"/><text fill="#000000" font-family="sans-serif" font-size="14" lengthAdjust="spacing" textLength="155" x="105.5" y="1234.7152">street_id : integer &#171;PK&#187;</text><text fill="#000000" font-family="sans-serif" font-size="14" lengthAdjust="spacing" textLength="136" x="105.5" y="1251.2034">street_name : string</text><text fill="#000000" font-family="sans-serif" font-size="14" lengthAdjust="spacing" textLength="139" x="105.5" y="1267.6917">city_id : integer &#171;FK&#187;</text><line style="stroke:#181818;stroke-width:0.5;" x1="86.5" x2="265.5" y1="1274.6448" y2="1274.6448"/></g><!--class City--><g id="elem_City"><rect codeLine="20" fill="#F1F1F1" height="97.4648" id="City" rx="2.5" ry="2.5" style="stroke:#181818;stroke-width:0.5;" width="194" x="79" y="1343.65"/><ellipse cx="158.75" cy="1359.65" fill="#ADD1B2" rx="11" ry="11" style="stroke:#181818;stroke-width:1.0;"/><path d="M162.3643,1366.15 L154.6445,1366.15 L154.6445,1353.7569 L162.3643,1353.7569 L162.3643,1355.9151 L157.0933,1355.9151 L157.0933,1358.588 L161.8662,1358.588 L161.8662,1360.7462 L157.0933,1360.7462 L157.0933,1363.9918 L162.3643,1363.9918 Z " fill="#000000"/><text fill="#000000" font-family="sans-serif" font-size="14" lengthAdjust="spacing" textLength="26" x="179.25" y="1364.941">City</text><line style="stroke:#181818;stroke-width:0.5;" x1="80" x2="272" y1="1375.65" y2="1375.65"/><ellipse cx="90" cy="1389.3941" fill="none" rx="3" ry="3" style="stroke:#038048;stroke-width:1.0;"/><text fill="#000000" font-family="sans-serif" font-size="14" lengthAdjust="spacing" textLength="139" x="99" y="1393.1852">city_id : integer &#171;PK&#187;</text><text fill="#000000" font-family="sans-serif" font-size="14" lengthAdjust="spacing" textLength="120" x="99" y="1409.6734">city_name : string</text><text fill="#000000" font-family="sans-serif" font-size="14" lengthAdjust="spacing" textLength="168" x="99" y="1426.1617">country_id : integer &#171;FK&#187;</text><line style="stroke:#181818;stroke-width:0.5;" x1="80" x2="272" y1="1433.1148" y2="1433.1148"/></g><!--class Country--><g id="elem_Country"><rect codeLine="26" fill="#F1F1F1" height="80.9766" id="Country" rx="2.5" ry="2.5" style="stroke:#181818;stroke-width:0.5;" width="194" x="79" y="1502.11"/><ellipse cx="144.25" cy="1518.11" fill="#ADD1B2" rx="11" ry="11" style="stroke:#181818;stroke-width:1.0;"/><path d="M147.8643,1524.61 L140.1445,1524.61 L140.1445,1512.2169 L147.8643,1512.2169 L147.8643,1514.3751 L142.5933,1514.3751 L142.5933,1517.048 L147.3662,1517.048 L147.3662,1519.2062 L142.5933,1519.2062 L142.5933,1522.4518 L147.8643,1522.4518 Z " fill="#000000"/><text fill="#000000" font-family="sans-serif" font-size="14" lengthAdjust="spacing" textLength="55" x="164.75" y="1523.401">Country</text><line style="stroke:#181818;stroke-width:0.5;" x1="80" x2="272" y1="1534.11" y2="1534.11"/><ellipse cx="90" cy="1547.8541" fill="none" rx="3" ry="3" style="stroke:#038048;stroke-width:1.0;"/><text fill="#000000" font-family="sans-serif" font-size="14" lengthAdjust="spacing" textLength="168" x="99" y="1551.6452">country_id : integer &#171;PK&#187;</text><text fill="#000000" font-family="sans-serif" font-size="14" lengthAdjust="spacing" textLength="149" x="99" y="1568.1334">country_name : string</text><line style="stroke:#181818;stroke-width:0.5;" x1="80" x2="272" y1="1575.0866" y2="1575.0866"/></g><!--class Team--><g id="elem_Team"><rect codeLine="31" fill="#F1F1F1" height="80.9766" id="Team" rx="2.5" ry="2.5" style="stroke:#181818;stroke-width:0.5;" width="176" x="14" y="230.93"/><ellipse cx="78.75" cy="246.93" fill="#ADD1B2" rx="11" ry="11" style="stroke:#181818;stroke-width:1.0;"/><path d="M82.3643,253.43 L74.6445,253.43 L74.6445,241.0369 L82.3643,241.0369 L82.3643,243.1951 L77.0933,243.1951 L77.0933,245.868 L81.8662,245.868 L81.8662,248.0262 L77.0933,248.0262 L77.0933,251.2718 L82.3643,251.2718 Z " fill="#000000"/><text fill="#000000" font-family="sans-serif" font-size="14" lengthAdjust="spacing" textLength="38" x="99.25" y="252.221">Team</text><line style="stroke:#181818;stroke-width:0.5;" x1="15" x2="189" y1="262.93" y2="262.93"/><ellipse cx="25" cy="276.6741" fill="none" rx="3" ry="3" style="stroke:#038048;stroke-width:1.0;"/><text fill="#000000" font-family="sans-serif" font-size="14" lengthAdjust="spacing" textLength="150" x="34" y="280.4652">team_id : integer &#171;PK&#187;</text><text fill="#000000" font-family="sans-serif" font-size="14" lengthAdjust="spacing" textLength="131" x="34" y="296.9534">team_name : string</text><line style="stroke:#181818;stroke-width:0.5;" x1="15" x2="189" y1="303.9066" y2="303.9066"/></g><!--class Referee--><g id="elem_Referee"><rect codeLine="36" fill="#F1F1F1" height="80.9766" id="Referee" rx="2.5" ry="2.5" style="stroke:#181818;stroke-width:0.5;" width="191" x="154.5" y="341.91"/><ellipse cx="219.75" cy="357.91" fill="#ADD1B2" rx="11" ry="11" style="stroke:#181818;stroke-width:1.0;"/><path d="M223.3643,364.41 L215.6445,364.41 L215.6445,352.0169 L223.3643,352.0169 L223.3643,354.1751 L218.0933,354.1751 L218.0933,356.848 L222.8662,356.848 L222.8662,359.0062 L218.0933,359.0062 L218.0933,362.2518 L223.3643,362.2518 Z " fill="#000000"/><text fill="#000000" font-family="sans-serif" font-size="14" lengthAdjust="spacing" textLength="52" x="240.25" y="363.201">Referee</text><line style="stroke:#181818;stroke-width:0.5;" x1="155.5" x2="344.5" y1="373.91" y2="373.91"/><ellipse cx="165.5" cy="387.6541" fill="none" rx="3" ry="3" style="stroke:#038048;stroke-width:1.0;"/><text fill="#000000" font-family="sans-serif" font-size="14" lengthAdjust="spacing" textLength="165" x="174.5" y="391.4452">referee_id : integer &#171;PK&#187;</text><text fill="#000000" font-family="sans-serif" font-size="14" lengthAdjust="spacing" textLength="164" x="174.5" y="407.9334">person_id : integer &#171;FK&#187;</text><line style="stroke:#181818;stroke-width:0.5;" x1="155.5" x2="344.5" y1="414.8866" y2="414.8866"/></g><!--class Player--><g id="elem_Player"><rect codeLine="41" fill="#F1F1F1" height="113.9531" id="Player" rx="2.5" ry="2.5" style="stroke:#181818;stroke-width:0.5;" width="190" x="7" y="452.88"/><ellipse cx="77.25" cy="468.88" fill="#ADD1B2" rx="11" ry="11" style="stroke:#181818;stroke-width:1.0;"/><path d="M80.8643,475.38 L73.1445,475.38 L73.1445,462.9869 L80.8643,462.9869 L80.8643,465.1451 L75.5933,465.1451 L75.5933,467.818 L80.3662,467.818 L80.3662,469.9762 L75.5933,469.9762 L75.5933,473.2218 L80.8643,473.2218 Z " fill="#000000"/><text fill="#000000" font-family="sans-serif" font-size="14" lengthAdjust="spacing" textLength="41" x="97.75" y="474.171">Player</text><line style="stroke:#181818;stroke-width:0.5;" x1="8" x2="196" y1="484.88" y2="484.88"/><ellipse cx="18" cy="498.6241" fill="none" rx="3" ry="3" style="stroke:#038048;stroke-width:1.0;"/><text fill="#000000" font-family="sans-serif" font-size="14" lengthAdjust="spacing" textLength="158" x="27" y="502.4152">player_id : integer &#171;PK&#187;</text><text fill="#000000" font-family="sans-serif" font-size="14" lengthAdjust="spacing" textLength="150" x="27" y="518.9034">team_id : integer &#171;FK&#187;</text><text fill="#000000" font-family="sans-serif" font-size="14" lengthAdjust="spacing" textLength="164" x="27" y="535.3917">person_id : integer &#171;FK&#187;</text><text fill="#000000" font-family="sans-serif" font-size="14" lengthAdjust="spacing" textLength="108" x="27" y="551.88">position : string</text><line style="stroke:#181818;stroke-width:0.5;" x1="8" x2="196" y1="558.8331" y2="558.8331"/></g><!--class Match--><g id="elem_Match"><rect codeLine="48" fill="#F1F1F1" height="146.9297" id="Match" rx="2.5" ry="2.5" style="stroke:#181818;stroke-width:0.5;" width="222" x="45" y="7"/><ellipse cx="131.25" cy="23" fill="#ADD1B2" rx="11" ry="11" style="stroke:#181818;stroke-width:1.0;"/><path d="M134.8643,29.5 L127.1445,29.5 L127.1445,17.1069 L134.8643,17.1069 L134.8643,19.2651 L129.5933,19.2651 L129.5933,21.938 L134.3662,21.938 L134.3662,24.0962 L129.5933,24.0962 L129.5933,27.3418 L134.8643,27.3418 Z " fill="#000000"/><text fill="#000000" font-family="sans-serif" font-size="14" lengthAdjust="spacing" textLength="41" x="151.75" y="28.291">Match</text><line style="stroke:#181818;stroke-width:0.5;" x1="46" x2="266" y1="39" y2="39"/><ellipse cx="56" cy="52.7441" fill="none" rx="3" ry="3" style="stroke:#038048;stroke-width:1.0;"/><text fill="#000000" font-family="sans-serif" font-size="14" lengthAdjust="spacing" textLength="158" x="65" y="56.5352">match_id : integer &#171;PK&#187;</text><text fill="#000000" font-family="sans-serif" font-size="14" lengthAdjust="spacing" textLength="121" x="65" y="73.0234">match_date : date</text><text fill="#000000" font-family="sans-serif" font-size="14" lengthAdjust="spacing" textLength="196" x="65" y="89.5117">home_team_id : integer &#171;FK&#187;</text><text fill="#000000" font-family="sans-serif" font-size="14" lengthAdjust="spacing" textLength="191" x="65" y="106">away_team_id : integer &#171;FK&#187;</text><text fill="#000000" font-family="sans-serif" font-size="14" lengthAdjust="spacing" textLength="165" x="65" y="122.4883">referee_id : integer &#171;FK&#187;</text><text fill="#000000" font-family="sans-serif" font-size="14" lengthAdjust="spacing" textLength="91" x="65" y="138.9766">result : string</text><line style="stroke:#181818;stroke-width:0.5;" x1="46" x2="266" y1="145.9297" y2="145.9297"/></g><!--class Person--><g id="elem_Person"><rect codeLine="57" fill="#F1F1F1" height="146.9297" id="Person" rx="2.5" ry="2.5" style="stroke:#181818;stroke-width:0.5;" width="213" x="69.5" y="627.84"/><ellipse cx="148.25" cy="643.84" fill="#ADD1B2" rx="11" ry="11" style="stroke:#181818;stroke-width:1.0;"/><path d="M151.8643,650.34 L144.1445,650.34 L144.1445,637.9469 L151.8643,637.9469 L151.8643,640.1051 L146.5933,640.1051 L146.5933,642.778 L151.3662,642.778 L151.3662,644.9362 L146.5933,644.9362 L146.5933,648.1818 L151.8643,648.1818 Z " fill="#000000"/><text fill="#000000" font-family="sans-serif" font-size="14" lengthAdjust="spacing" textLength="47" x="168.75" y="649.131">Person</text><line style="stroke:#181818;stroke-width:0.5;" x1="70.5" x2="281.5" y1="659.84" y2="659.84"/><ellipse cx="80.5" cy="673.5841" fill="none" rx="3" ry="3" style="stroke:#038048;stroke-width:1.0;"/><text fill="#000000" font-family="sans-serif" font-size="14" lengthAdjust="spacing" textLength="164" x="89.5" y="677.3752">person_id : integer &#171;PK&#187;</text><text fill="#000000" font-family="sans-serif" font-size="14" lengthAdjust="spacing" textLength="119" x="89.5" y="693.8634">full_name : string</text><text fill="#000000" font-family="sans-serif" font-size="14" lengthAdjust="spacing" textLength="157" x="89.5" y="710.3517">father_id : integer &#171;FK&#187;</text><text fill="#000000" font-family="sans-serif" font-size="14" lengthAdjust="spacing" textLength="166" x="89.5" y="726.84">mother_id : integer &#171;FK&#187;</text><text fill="#000000" font-family="sans-serif" font-size="14" lengthAdjust="spacing" textLength="139" x="89.5" y="743.3283">city_id : integer &#171;FK&#187;</text><text fill="#000000" font-family="sans-serif" font-size="14" lengthAdjust="spacing" textLength="187" x="89.5" y="759.8166">apartment_id : integer &#171;FK&#187;</text><line style="stroke:#181818;stroke-width:0.5;" x1="70.5" x2="281.5" y1="766.7697" y2="766.7697"/></g><!--link Apartment to House--><g id="link_Apartment_House"><path codeLine="66" d="M176,967.58 C176,986.48 176,982.3 176,1001.93 " fill="none" id="Apartment-House" style="stroke:#181818;stroke-width:1.0;"/><line style="stroke:#181818;stroke-width:1.0;" x1="176" x2="170" y1="957.58" y2="949.58"/><line style="stroke:#181818;stroke-width:1.0;" x1="176" x2="182" y1="957.58" y2="949.58"/><line style="stroke:#181818;stroke-width:1.0;" x1="176" x2="176" y1="957.58" y2="949.58"/><ellipse cx="176" cy="963.58" fill="none" rx="4" ry="4" style="stroke:#181818;stroke-width:1.0;"/><line style="stroke:#181818;stroke-width:1.0;" x1="180" x2="172" y1="1005.93" y2="1005.93"/><line style="stroke:#181818;stroke-width:1.0;" x1="180" x2="172" y1="1002.93" y2="1002.93"/><line style="stroke:#181818;stroke-width:1.0;" x1="176" x2="176" y1="1001.93" y2="1009.93"/></g><!--link House to Street--><g id="link_House_Street"><path codeLine="67" d="M176,1142.43 C176,1162.09 176,1157.98 176,1176.91 " fill="none" id="House-Street" style="stroke:#181818;stroke-width:1.0;"/><line style="stroke:#181818;stroke-width:1.0;" x1="176" x2="170" y1="1132.43" y2="1124.43"/><line style="stroke:#181818;stroke-width:1.0;" x1="176" x2="182" y1="1132.43" y2="1124.43"/><line style="stroke:#181818;stroke-width:1.0;" x1="176" x2="176" y1="1132.43" y2="1124.43"/><ellipse cx="176" cy="1138.43" fill="none" rx="4" ry="4" style="stroke:#181818;stroke-width:1.0;"/><line style="stroke:#181818;stroke-width:1.0;" x1="180" x2="172" y1="1180.91" y2="1180.91"/><line style="stroke:#181818;stroke-width:1.0;" x1="180" x2="172" y1="1177.91" y2="1177.91"/><line style="stroke:#181818;stroke-width:1.0;" x1="176" x2="176" y1="1176.91" y2="1184.91"/></g><!--link Street to City--><g id="link_Street_City"><path codeLine="68" d="M176,1301.14 C176,1320.26 176,1316.21 176,1335.32 " fill="none" id="Street-City" style="stroke:#181818;stroke-width:1.0;"/><line style="stroke:#181818;stroke-width:1.0;" x1="176" x2="170" y1="1291.14" y2="1283.14"/><line style="stroke:#181818;stroke-width:1.0;" x1="176" x2="182" y1="1291.14" y2="1283.14"/><line style="stroke:#181818;stroke-width:1.0;" x1="176" x2="176" y1="1291.14" y2="1283.14"/><ellipse cx="176" cy="1297.14" fill="none" rx="4" ry="4" style="stroke:#181818;stroke-width:1.0;"/><line style="stroke:#181818;stroke-width:1.0;" x1="180" x2="172" y1="1339.32" y2="1339.32"/><line style="stroke:#181818;stroke-width:1.0;" x1="180" x2="172" y1="1336.32" y2="1336.32"/><line style="stroke:#181818;stroke-width:1.0;" x1="176" x2="176" y1="1335.32" y2="1343.32"/></g><!--link City to Country--><g id="link_City_Country"><path codeLine="69" d="M176,1459.5 C176,1478.95 176,1475.12 176,1493.65 " fill="none" id="City-Country" style="stroke:#181818;stroke-width:1.0;"/><line style="stroke:#181818;stroke-width:1.0;" x1="176" x2="170" y1="1449.5" y2="1441.5"/><line style="stroke:#181818;stroke-width:1.0;" x1="176" x2="182" y1="1449.5" y2="1441.5"/><line style="stroke:#181818;stroke-width:1.0;" x1="176" x2="176" y1="1449.5" y2="1441.5"/><ellipse cx="176" cy="1455.5" fill="none" rx="4" ry="4" style="stroke:#181818;stroke-width:1.0;"/><line style="stroke:#181818;stroke-width:1.0;" x1="180" x2="172" y1="1497.65" y2="1497.65"/><line style="stroke:#181818;stroke-width:1.0;" x1="180" x2="172" y1="1494.65" y2="1494.65"/><line style="stroke:#181818;stroke-width:1.0;" x1="176" x2="176" y1="1493.65" y2="1501.65"/></g><!--link Person to Person--><g id="link_Person_Person"><path codeLine="71" d="M300.7233,692.9999 C321.0833,694.1099 317.5,696.22 317.5,701.3 C317.5,706.38 311.0981,709.0345 290.7381,710.1445 " fill="none" id="Person-Person" style="stroke:#181818;stroke-width:1.0;"/><line style="stroke:#181818;stroke-width:1.0;" x1="290.7381" x2="282.4234" y1="692.4555" y2="698.0111"/><line style="stroke:#181818;stroke-width:1.0;" x1="290.7381" x2="283.0766" y1="692.4555" y2="686.0289"/><line style="stroke:#181818;stroke-width:1.0;" x1="290.7381" x2="282.75" y1="692.4555" y2="692.02"/><ellipse cx="296.7292" cy="692.7821" fill="none" rx="4" ry="4" style="stroke:#181818;stroke-width:1.0;"/><line style="stroke:#181818;stroke-width:1.0;" x1="286.9618" x2="286.5263" y1="714.3563" y2="706.3682"/><line style="stroke:#181818;stroke-width:1.0;" x1="289.9574" x2="289.5219" y1="714.193" y2="706.2049"/><line style="stroke:#181818;stroke-width:1.0;" x1="290.7381" x2="282.75" y1="710.1445" y2="710.58"/><text fill="#000000" font-family="sans-serif" font-size="13" lengthAdjust="spacing" textLength="37" x="323.5" y="706.3684">father</text></g><!--link Person to Person--><g id="link_Person_Person"><path codeLine="72" d="M300.7735,681.4651 C345.6735,680.2551 366.5,687.19 366.5,701.3 C366.5,715.41 335.6771,722.0755 290.7771,720.8655 " fill="none" id="Person-Person-1" style="stroke:#181818;stroke-width:1.0;"/><line style="stroke:#181818;stroke-width:1.0;" x1="290.7771" x2="282.9416" y1="681.7345" y2="687.9478"/><line style="stroke:#181818;stroke-width:1.0;" x1="290.7771" x2="282.6184" y1="681.7345" y2="675.9522"/><line style="stroke:#181818;stroke-width:1.0;" x1="290.7771" x2="282.78" y1="681.7345" y2="681.95"/><ellipse cx="296.7749" cy="681.5729" fill="none" rx="4" ry="4" style="stroke:#181818;stroke-width:1.0;"/><line style="stroke:#181818;stroke-width:1.0;" x1="286.6708" x2="286.8863" y1="724.7563" y2="716.7592"/><line style="stroke:#181818;stroke-width:1.0;" x1="289.6697" x2="289.8852" y1="724.8371" y2="716.84"/><line style="stroke:#181818;stroke-width:1.0;" x1="290.7771" x2="282.78" y1="720.8655" y2="720.65"/><text fill="#000000" font-family="sans-serif" font-size="13" lengthAdjust="spacing" textLength="45" x="372.5" y="706.3684">mother</text></g><!--link Person to Apartment--><g id="link_Person_Apartment"><path codeLine="73" d="M176,793.17 C176,818.62 176,820.54 176,843.46 " fill="none" id="Person-Apartment" style="stroke:#181818;stroke-width:1.0;"/><line style="stroke:#181818;stroke-width:1.0;" x1="176" x2="170" y1="783.17" y2="775.17"/><line style="stroke:#181818;stroke-width:1.0;" x1="176" x2="182" y1="783.17" y2="775.17"/><line style="stroke:#181818;stroke-width:1.0;" x1="176" x2="176" y1="783.17" y2="775.17"/><ellipse cx="176" cy="789.17" fill="none" rx="4" ry="4" style="stroke:#181818;stroke-width:1.0;"/><line style="stroke:#181818;stroke-width:1.0;" x1="180" x2="172" y1="847.46" y2="847.46"/><line style="stroke:#181818;stroke-width:1.0;" x1="180" x2="172" y1="844.46" y2="844.46"/><line style="stroke:#181818;stroke-width:1.0;" x1="176" x2="176" y1="843.46" y2="851.46"/><text fill="#000000" font-family="sans-serif" font-size="13" lengthAdjust="spacing" textLength="45" x="177" y="818.3384">lives in</text></g><!--link Match to Team--><g id="link_Match_Team"><path codeLine="75" d="M45.5102,168.1018 C37.9702,177.3018 42.84,173.32 38,183.93 C30.48,200.42 32.6355,210.763 44.6855,224.783 " fill="none" id="Match-Team" style="stroke:#181818;stroke-width:1.0;"/><line style="stroke:#181818;stroke-width:1.0;" x1="51.849" x2="52.2794" y1="160.3675" y2="150.3767"/><line style="stroke:#181818;stroke-width:1.0;" x1="51.849" x2="61.5606" y1="160.3675" y2="157.9833"/><line style="stroke:#181818;stroke-width:1.0;" x1="51.849" x2="56.92" y1="160.3675" y2="154.18"/><ellipse cx="48.0457" cy="165.0081" fill="none" rx="4" ry="4" style="stroke:#181818;stroke-width:1.0;"/><line style="stroke:#181818;stroke-width:1.0;" x1="50.3262" x2="44.2592" y1="225.2092" y2="230.4238"/><line style="stroke:#181818;stroke-width:1.0;" x1="48.3708" x2="42.3038" y1="222.9341" y2="228.1486"/><line style="stroke:#181818;stroke-width:1.0;" x1="44.6855" x2="49.9" y1="224.783" y2="230.85"/><text fill="#000000" font-family="sans-serif" font-size="13" lengthAdjust="spacing" textLength="73" x="39" y="197.4984">home_team</text></g><!--link Match to Team--><g id="link_Match_Team"><path codeLine="76" d="M130.2533,171.5569 C122.8533,197.4469 121.951,200.6287 115.621,222.7487 " fill="none" id="Match-Team-1" style="stroke:#181818;stroke-width:1.0;"/><line style="stroke:#181818;stroke-width:1.0;" x1="133.0014" x2="129.431" y1="161.942" y2="152.6011"/><line style="stroke:#181818;stroke-width:1.0;" x1="133.0014" x2="140.969" y1="161.942" y2="155.8989"/><line style="stroke:#181818;stroke-width:1.0;" x1="133.0014" x2="135.2" y1="161.942" y2="154.25"/><ellipse cx="131.3525" cy="167.7109" fill="none" rx="4" ry="4" style="stroke:#181818;stroke-width:1.0;"/><line style="stroke:#181818;stroke-width:1.0;" x1="118.3661" x2="110.6749" y1="227.6949" y2="225.4939"/><line style="stroke:#181818;stroke-width:1.0;" x1="119.1915" x2="111.5002" y1="224.8106" y2="222.6096"/><line style="stroke:#181818;stroke-width:1.0;" x1="115.621" x2="113.42" y1="222.7487" y2="230.44"/><text fill="#000000" font-family="sans-serif" font-size="13" lengthAdjust="spacing" textLength="69" x="126.77" y="197.4984">away_team</text></g><!--link Match to Referee--><g id="link_Match_Referee"><path codeLine="77" d="M200.4458,170.7216 C204.7658,180.5616 201.6,174.15 205,183.93 C223.56,237.23 235.1453,293.4308 242.2453,333.8308 " fill="none" id="Match-Referee" style="stroke:#181818;stroke-width:1.0;"/><line style="stroke:#181818;stroke-width:1.0;" x1="196.4259" x2="187.7161" y1="161.5652" y2="156.6519"/><line style="stroke:#181818;stroke-width:1.0;" x1="196.4259" x2="198.7039" y1="161.5652" y2="151.8281"/><line style="stroke:#181818;stroke-width:1.0;" x1="196.4259" x2="193.21" y1="161.5652" y2="154.24"/><ellipse cx="198.8379" cy="167.059" fill="none" rx="4" ry="4" style="stroke:#181818;stroke-width:1.0;"/><line style="stroke:#181818;stroke-width:1.0;" x1="246.8773" x2="238.998" y1="337.078" y2="338.4627"/><line style="stroke:#181818;stroke-width:1.0;" x1="246.358" x2="238.4787" y1="334.1233" y2="335.508"/><line style="stroke:#181818;stroke-width:1.0;" x1="242.2453" x2="243.63" y1="333.8308" y2="341.71"/></g><!--link Team to Player--><g id="link_Team_Player"><path codeLine="78" d="M102,327.26 C102,365.69 102,401.23 102,444.44 " fill="none" id="Team-Player" style="stroke:#181818;stroke-width:1.0;"/><line style="stroke:#181818;stroke-width:1.0;" x1="102" x2="102" y1="323.26" y2="312.26"/><ellipse cx="102" cy="323.26" fill="none" rx="4" ry="4" style="stroke:#181818;stroke-width:1.0;"/><line style="stroke:#181818;stroke-width:1.0;" x1="98" x2="106" y1="316.26" y2="316.26"/><line style="stroke:#181818;stroke-width:1.0;" x1="102" x2="110" y1="444.44" y2="452.44"/><line style="stroke:#181818;stroke-width:1.0;" x1="102" x2="94" y1="444.44" y2="452.44"/><line style="stroke:#181818;stroke-width:1.0;" x1="102" x2="102" y1="444.44" y2="452.44"/></g><!--link Player to Person--><g id="link_Player_Person"><path codeLine="79" d="M126.9142,574.6403 C134.3342,593.6103 136.8899,600.1681 144.7199,620.2181 " fill="none" id="Player-Person" style="stroke:#181818;stroke-width:1.0;"/><line style="stroke:#181818;stroke-width:1.0;" x1="121.7319" x2="129.1823" y1="572.3723" y2="569.4581"/><line style="stroke:#181818;stroke-width:1.0;" x1="122.8247" x2="130.2751" y1="575.1661" y2="572.252"/><line style="stroke:#181818;stroke-width:1.0;" x1="126.9142" x2="124" y1="574.6403" y2="567.19"/><line style="stroke:#181818;stroke-width:1.0;" x1="149.9009" x2="142.449" y1="622.489" y2="625.3991"/><line style="stroke:#181818;stroke-width:1.0;" x1="148.8096" x2="141.3577" y1="619.6945" y2="622.6046"/><line style="stroke:#181818;stroke-width:1.0;" x1="144.7199" x2="147.63" y1="620.2181" y2="627.67"/></g><!--link Referee to Person--><g id="link_Referee_Person"><path codeLine="80" d="M242.1742,431.2377 C235.8542,468.5577 226.81,517.82 215,566.84 C210.22,586.67 206.5902,600.27 200.8702,619.88 " fill="none" id="Referee-Person" style="stroke:#181818;stroke-width:1.0;"/><line style="stroke:#181818;stroke-width:1.0;" x1="238.8983" x2="246.786" y1="426.626" y2="427.9617"/><line style="stroke:#181818;stroke-width:1.0;" x1="238.3974" x2="246.2851" y1="429.5839" y2="430.9196"/><line style="stroke:#181818;stroke-width:1.0;" x1="242.1742" x2="243.51" y1="431.2377" y2="423.35"/><line style="stroke:#181818;stroke-width:1.0;" x1="203.5901" x2="195.9101" y1="624.8401" y2="622.5999"/><line style="stroke:#181818;stroke-width:1.0;" x1="204.4301" x2="196.7502" y1="621.9601" y2="619.72"/><line style="stroke:#181818;stroke-width:1.0;" x1="200.8702" x2="198.63" y1="619.88" y2="627.56"/></g><!--SRC=[ZLJRQW8n47tFLmo-5dz0H2Y5KYY5nVPTKXqri4aacsqHrtzlBfDrrMJjIovp9dFEJ2P1POKzmkJvm8sLgEm4JWpWYQVzIcnW1a9PtA61-RnwNooSmmLNhVnsIE_ZmBrk6xmz-EeFdXb3OdppJiIMFK1C4SkmDDOWsYmDmDfnF5Bm6GAGX7mqqa2WuX8Tx7P2xVv9yk96eiYvLmEvT-5rgwnvp13T4ad-KE8Xz9fg4EmBkQH8rYqBOG9KZB74BRfwnJ0ka8dxGYo00vf6gqTfLZK_eY5jXx0PKvTlYn4g1-f6MA5LDgaFRjTxOfT-NI2Fs8PRNni_XHQMk1fHnN_vSGml5B17cxQsMT5LI3VLB9ixoTwsTNtNW5jkz_TL9bgfHy3YonZ-78KBxxyYEElfjEiW_1GiZCaKdowBKpBwfyRyq1jYjpCMwv3Cj9jHVYKq9dY3NiJDe1O_sBW460lDaLpy4t9eV-bPjB_oQvIU3WjUdRET8FOzYnDqtK0a8_SRwny0]--></g></svg>